<svg width="48" height="48" viewBox="0 0 48 48" fill="none" xmlns="http://www.w3.org/2000/svg">
  <!-- Background circle with gradient -->
  <defs>
    <linearGradient id="logoGradient" x1="0%" y1="0%" x2="100%" y2="100%">
      <stop offset="0%" style="stop-color:#3B82F6;stop-opacity:1" />
      <stop offset="100%" style="stop-color:#7C3AED;stop-opacity:1" />
    </linearGradient>
  </defs>
  
  <!-- Background circle -->
  <circle cx="24" cy="24" r="22" fill="url(#logoGradient)" stroke="#1E40AF" stroke-width="2"/>
  
  <!-- Book -->
  <path d="M12 18C12 16.8954 12.8954 16 14 16H34C35.1046 16 36 16.8954 36 18V32C36 33.1046 35.1046 34 34 34H14C12.8954 34 12 33.1046 12 32V18Z" fill="white" opacity="0.9"/>
  
  <!-- Book pages -->
  <path d="M14 18H34V32H14V18Z" fill="white" opacity="0.7"/>
  <path d="M16 20H32V30H16V20Z" fill="white" opacity="0.5"/>
  
  <!-- Book spine -->
  <rect x="14" y="18" width="2" height="14" fill="#E5E7EB" opacity="0.8"/>
  
  <!-- Pen -->
  <path d="M20 12L26 18L24 20L18 14L20 12Z" fill="#F59E0B"/>
  <path d="M18 14L20 12L22 14L20 16L18 14Z" fill="#D97706"/>
  <path d="M26 18L28 16L30 18L28 20L26 18Z" fill="#F59E0B"/>
  
  <!-- Pen tip -->
  <path d="M28 16L30 18L29 19L27 17L28 16Z" fill="#DC2626"/>
  
  <!-- Learning sparkles -->
  <circle cx="32" cy="12" r="1.5" fill="#FCD34D"/>
  <circle cx="34" cy="14" r="1" fill="#FCD34D"/>
  <circle cx="30" cy="14" r="0.8" fill="#FCD34D"/>
  
  <!-- Text lines on book -->
  <rect x="18" y="22" width="8" height="1" fill="#6B7280" opacity="0.6"/>
  <rect x="18" y="24" width="6" height="1" fill="#6B7280" opacity="0.6"/>
  <rect x="18" y="26" width="10" height="1" fill="#6B7280" opacity="0.6"/>
  <rect x="18" y="28" width="7" height="1" fill="#6B7280" opacity="0.6"/>
</svg> 